<?xml version="1.0" standalone="no"?>
<!DOCTYPE svg PUBLIC "-//W3C//DTD SVG 1.1//EN" "http://www.w3.org/Graphics/SVG/1.1/DTD/svg11.dtd">
<svg width="324" height="324" version="1.1" xmlns="http://www.w3.org/2000/svg">
  <title>20 cells diameter theta maze</title>
  <desc>20 cells diameter theta maze generated by The Maze Generator Website (http://www.mazegenerator.net/).</desc>
  <g fill="none" stroke="#000000" stroke-width="2" stroke-linecap="square">
    <path d="M 140.37258300203047,185.62741699796953 A 32,32 0 1,1 163,195" />
    <path d="M 163,115 A 48,48 0 0,1 196.94112549695427,196.94112549695427" />
    <path d="M 181.3688047535243,207.34621756054176 A 48,48 0 0,1 129.05887450304573,196.94112549695427" />
    <path d="M 118.65378243945824,181.36880475352433 A 48,48 0 0,1 115,163" />
    <path d="M 129.05887450304573,129.05887450304573 A 48,48 0 0,1 144.63119524647567,118.65378243945824" />
    <path d="M 138.50826032863421,103.87170991927766 A 64,64 0 0,1 163,99" />
    <path d="M 187.49173967136574,103.87170991927765 A 64,64 0 0,1 222.12829008072237,138.50826032863427" />
    <path d="M 208.25483399593904,208.25483399593904 A 64,64 0 0,1 187.49173967136576,222.12829008072237" />
    <path d="M 163,83 A 80,80 0 0,1 193.61467458920717,89.089637399097057" />
    <path d="M 207.44561864156816,96.482431015796379 A 80,80 0 0,1 229.51756898420362,118.55438135843181" />
    <path d="M 236.91036260090294,132.3853254107928 A 80,80 0 0,1 147.39277423870973,241.46282243225843" />
    <path d="M 132.38532541079283,236.91036260090294 A 80,80 0 0,1 84.537177567741566,178.60722576129029" />
    <path d="M 84.537177567741566,147.39277423870973 A 80,80 0 0,1 106.4314575050762,106.43145750507621" />
    <path d="M 132.38532541079277,89.089637399097086 A 80,80 0 0,1 147.39277423870971,84.537177567741566" />
    <path d="M 126.26239049295131,74.3075648789165 A 96,96 0 0,1 216.33474236988181,83.178917218955661" />
    <path d="M 242.82108278104434,109.66525763011819 A 96,96 0 0,1 251.69243512108352,126.26239049295137" />
    <path d="M 257.15538691871012,144.27132908645169 A 96,96 0 0,1 259,163" />
    <path d="M 251.69243512108352,199.7376095070486 A 96,96 0 0,1 216.33474236988181,242.82108278104437" />
    <path d="M 199.73760950704863,251.69243512108352 A 96,96 0 0,1 181.72867091354834,257.15538691871012" />
    <path d="M 144.27132908645169,257.15538691871012 A 96,96 0 0,1 109.66525763011822,242.82108278104437" />
    <path d="M 95.117749006091444,230.88225099390857 A 96,96 0 0,1 68.844613081289879,144.27132908645169" />
    <path d="M 95.117749006091429,95.117749006091458 A 96,96 0 0,1 109.66525763011819,83.178917218955661" />
    <path d="M 184.85011606580636,53.152048594838192 A 112,112 0 0,1 205.86054442489007,59.525492358735889" />
    <path d="M 225.22386609819546,69.875403422114928 A 112,112 0 0,1 242.19595949289334,83.804040507106677" />
    <path d="M 256.12459657788509,100.77613390180454 A 112,112 0 0,1 272.84795140516178,141.14988393419364" />
    <path d="M 275,163 A 112,112 0 0,1 256.12459657788509,225.22386609819543" />
    <path d="M 225.22386609819543,256.12459657788509 A 112,112 0 0,1 205.86054442489007,266.4745076412641" />
    <path d="M 120.13945557510996,266.47450764126415 A 112,112 0 0,1 69.875403422114928,225.22386609819546" />
    <path d="M 59.5254923587359,205.86054442489012 A 112,112 0 0,1 53.152048594838192,184.85011606580642" />
    <path d="M 51,163.00000000000003 A 112,112 0 0,1 83.804040507106663,83.804040507106691" />
    <path d="M 100.77613390180454,69.875403422114928 A 112,112 0 0,1 141.14988393419358,53.152048594838206" />
    <path d="M 187.97156121806441,37.459484108386505 A 128,128 0 0,1 269.4281103747258,91.8870101734909" />
    <path d="M 288.5405158916135,138.02843878193556 A 128,128 0 0,1 291,163" />
    <path d="M 281.25658016144473,211.98347934273147 A 128,128 0 0,1 269.4281103747258,234.11298982650905" />
    <path d="M 234.11298982650908,269.4281103747258 A 128,128 0 0,1 187.97156121806447,288.5405158916135" />
    <path d="M 163.00000000000003,291 A 128,128 0 0,1 114.01652065726853,281.25658016144473" />
    <path d="M 56.57188962527421,234.11298982650908 A 128,128 0 0,1 44.743419838555326,211.98347934273156" />
    <path d="M 37.459484108386519,187.97156121806447 A 128,128 0 0,1 35,163.00000000000003" />
    <path d="M 44.743419838555312,114.01652065726847 A 128,128 0 0,1 72.4903320081219,72.490332008121939" />
    <path d="M 91.887010173490921,56.57188962527421 A 128,128 0 0,1 114.01652065726843,44.743419838555326" />
    <path d="M 163,19 A 144,144 0 0,1 204.80099352464259,25.200591654561919" />
    <path d="M 218.10641426057293,29.96134731837472 A 144,144 0 0,1 230.88113010294364,36.003337933836875" />
    <path d="M 243.0021135548227,43.268375828433477 A 144,144 0 0,1 254.35263291956494,51.686494715765875" />
    <path d="M 274.31350528423411,71.647367080435046 A 144,144 0 0,1 289.99666206616314,95.118869897056314" />
    <path d="M 296.03865268162531,107.89358573942707 A 144,144 0 0,1 304.23308037806521,134.90699362967752" />
    <path d="M 307,163 A 144,144 0 0,1 306.30660064079632,177.11446820745672" />
    <path d="M 304.23308037806521,191.09300637032246 A 144,144 0 0,1 300.79940834543811,204.80099352464256" />
    <path d="M 296.03865268162531,218.10641426057293 A 144,144 0 0,1 289.99666206616314,230.88113010294367" />
    <path d="M 282.73162417156652,243.0021135548227 A 144,144 0 0,1 254.35263291956494,274.31350528423411" />
    <path d="M 243.0021135548227,282.73162417156652 A 144,144 0 0,1 230.8811301029437,289.99666206616314" />
    <path d="M 218.10641426057293,296.03865268162531 A 144,144 0 0,1 191.09300637032251,304.23308037806521" />
    <path d="M 177.11446820745675,306.30660064079632 A 144,144 0 0,1 148.88553179254328,306.30660064079632" />
    <path d="M 134.90699362967752,304.23308037806521 A 144,144 0 0,1 121.19900647535745,300.79940834543811" />
    <path d="M 107.8935857394271,296.03865268162531 A 144,144 0 0,1 71.647367080435075,274.31350528423411" />
    <path d="M 61.176623509137173,264.82337649086287 A 144,144 0 0,1 36.003337933836889,230.8811301029437" />
    <path d="M 29.961347318374749,218.10641426057302 A 144,144 0 0,1 25.200591654561919,204.80099352464259" />
    <path d="M 21.766919621934818,191.09300637032254 A 144,144 0 0,1 29.96134731837472,107.89358573942704" />
    <path d="M 36.003337933836875,95.118869897056356 A 144,144 0 0,1 51.686494715765889,71.647367080435032" />
    <path d="M 61.17662350913713,61.176623509137173 A 144,144 0 0,1 95.1188698970563,36.0033379338369" />
    <path d="M 107.89358573942698,29.961347318374749 A 144,144 0 0,1 134.90699362967746,21.766919621934818" />
    <path d="M 178.68274245272968,3.7704437324484843 A 160,160 0 1,1 163,3" />
  </g>
  <g fill="none" stroke="#000000" stroke-width="2" stroke-linecap="butt">
    <line x1="163" y1="19" x2="163" y2="67" />
    <line x1="211.9834793427315" y1="44.7434198385553" x2="205.86054442489007" y2="59.525492358735889" />
    <line x1="193.6146745892072" y1="89.089637399097057" x2="187.49173967136574" y2="103.87170991927765" />
    <line x1="238.42347789215961" y1="21.892597704263181" x2="230.88113010294364" y2="36.003337933836875" />
    <line x1="264.50292546618329" y1="39.318327461962085" x2="254.35263291956494" y2="51.686494715765875" />
    <line x1="264.82337649086287" y1="61.176623509137144" x2="219.5685424949238" y2="106.4314575050762" />
    <line x1="282.73162417156652" y1="82.997886445177272" x2="269.4281103747258" y2="91.8870101734909" />
    <line x1="256.12459657788509" y1="100.77613390180454" x2="242.82108278104434" y2="109.66525763011818" />
    <line x1="304.10740229573679" y1="87.576522107840347" x2="289.99666206616314" y2="95.118869897056314" />
    <line x1="296.03865268162531" y1="107.89358573942707" x2="266.4745076412641" y2="120.13945557510994" />
    <line x1="251.69243512108352" y1="126.26239049295137" x2="222.12829008072237" y2="138.50826032863427" />
    <line x1="272.84795140516178" y1="141.14988393419364" x2="257.15538691871012" y2="144.27132908645169" />
    <line x1="322.22955626755152" y1="147.31725754727029" x2="306.30660064079632" y2="148.88553179254325" />
    <line x1="307" y1="163" x2="291" y2="163" />
    <line x1="227" y1="163" x2="211" y2="163" />
    <line x1="322.22955626755152" y1="178.68274245272971" x2="306.30660064079632" y2="177.11446820745672" />
    <line x1="304.23308037806521" y1="191.09300637032246" x2="241.46282243225843" y2="178.60722576129027" />
    <line x1="310.82072520180589" y1="224.22934917841434" x2="281.25658016144473" y2="211.98347934273147" />
    <line x1="236.91036260090294" y1="193.61467458920717" x2="222.12829008072237" y2="187.49173967136574" />
    <line x1="296.0351379684073" y1="251.89123728313632" x2="282.73162417156652" y2="243.0021135548227" />
    <line x1="264.82337649086287" y1="264.82337649086287" x2="230.88225099390857" y2="230.88225099390854" />
    <line x1="208.25483399593904" y1="208.25483399593904" x2="185.62741699796953" y2="185.62741699796953" />
    <line x1="251.89123728313635" y1="296.03513796840724" x2="234.11298982650908" y2="269.4281103747258" />
    <line x1="225.22386609819546" y1="256.12459657788509" x2="216.33474236988181" y2="242.82108278104437" />
    <line x1="199.73760950704863" y1="251.69243512108352" x2="193.6146745892072" y2="236.91036260090294" />
    <line x1="191.09300637032251" y1="304.23308037806521" x2="181.72867091354834" y2="257.15538691871012" />
    <line x1="163.00000000000003" y1="307" x2="163.00000000000003" y2="291" />
    <line x1="163" y1="275" x2="163" y2="211" />
    <line x1="134.90699362967752" y1="304.23308037806521" x2="141.14988393419361" y2="272.84795140516178" />
    <line x1="144.27132908645169" y1="257.15538691871012" x2="147.39277423870973" y2="241.46282243225843" />
    <line x1="116.55445163928607" y1="316.1104537171534" x2="121.19900647535746" y2="300.79940834543811" />
    <line x1="120.13945557510996" y1="266.47450764126415" x2="126.2623904929514" y2="251.69243512108352" />
    <line x1="132.38532541079283" y1="236.91036260090294" x2="138.50826032863427" y2="222.12829008072237" />
    <line x1="82.997886445177315" y1="282.73162417156652" x2="100.77613390180459" y2="256.12459657788509" />
    <line x1="61.176623509137158" y1="264.82337649086287" x2="72.490332008121925" y2="253.5096679918781" />
    <line x1="83.804040507106691" y1="242.19595949289334" x2="95.117749006091444" y2="230.88225099390857" />
    <line x1="117.74516600406096" y1="208.25483399593907" x2="140.37258300203047" y2="185.62741699796953" />
    <line x1="56.57188962527421" y1="234.11298982650908" x2="69.875403422114928" y2="225.22386609819546" />
    <line x1="21.89259770426321" y1="238.42347789215967" x2="36.003337933836889" y2="230.8811301029437" />
    <line x1="29.961347318374749" y1="218.10641426057302" x2="44.743419838555326" y2="211.98347934273156" />
    <line x1="89.089637399097086" y1="193.61467458920723" x2="118.65378243945824" y2="181.36880475352433" />
    <line x1="21.766919621934846" y1="191.09300637032254" x2="53.152048594838206" y2="184.85011606580642" />
    <line x1="51" y1="163.00000000000003" x2="115" y2="163" />
    <line x1="37.459484108386505" y1="138.02843878193556" x2="53.152048594838192" y2="141.14988393419364" />
    <line x1="29.96134731837472" y1="107.89358573942704" x2="44.743419838555312" y2="114.01652065726847" />
    <line x1="59.5254923587359" y1="120.13945557510992" x2="74.30756487891648" y2="126.26239049295137" />
    <line x1="89.089637399097072" y1="132.3853254107928" x2="118.65378243945824" y2="144.63119524647567" />
    <line x1="21.892597704263181" y1="87.57652210784039" x2="36.003337933836875" y2="95.118869897056342" />
    <line x1="83.178917218955633" y1="109.66525763011822" x2="96.482431015796365" y2="118.55438135843185" />
    <line x1="72.4903320081219" y1="72.490332008121939" x2="95.117749006091429" y2="95.117749006091458" />
    <line x1="106.43145750507618" y1="106.43145750507621" x2="140.37258300203047" y2="140.3725830020305" />
    <line x1="82.997886445177286" y1="43.268375828433491" x2="91.887010173490921" y2="56.57188962527421" />
    <line x1="100.77613390180456" y1="69.875403422114928" x2="118.55438135843183" y2="96.482431015796379" />
    <line x1="87.576522107840333" y1="21.892597704263238" x2="95.1188698970563" y2="36.0033379338369" />
    <line x1="132.38532541079277" y1="89.089637399097086" x2="144.63119524647567" y2="118.65378243945824" />
    <line x1="134.90699362967746" y1="21.766919621934846" x2="141.14988393419358" y2="53.152048594838206" />
    <line x1="144.27132908645166" y1="68.844613081289893" x2="147.39277423870971" y2="84.53717756774158" />
    <line x1="147.31725754727032" y1="3.7704437324484843" x2="148.88553179254328" y2="19.693399359203653" />
  </g>
</svg>
