<?xml version="1.0" standalone="no"?>
<!DOCTYPE svg PUBLIC "-//W3C//DTD SVG 1.1//EN" "http://www.w3.org/Graphics/SVG/1.1/DTD/svg11.dtd">
<svg width="116" height="116" version="1.1" xmlns="http://www.w3.org/2000/svg">
  <title>Simple maze</title>
  <g fill="none" stroke="#ADE2FF" stroke-width="2" stroke-linecap="square">
    <path d="M 42.029437251522864,75.970562748477136 A 24,24 0 1,1 59,83" />
    <path d="M 30.715728752538094,30.715728752538105 A 40,40 0 0,1 74.3073372946036,22.044818699548529" />
    <path d="M 87.2842712474619,30.715728752538098 A 40,40 0 0,1 95.955181300451471,74.307337294603585" />
    <path d="M 74.3073372946036,95.955181300451471 A 40,40 0 0,1 30.715728752538105,87.2842712474619" />
    <path d="M 22.044818699548536,74.307337294603613 A 40,40 0 0,1 19,59.000000000000007" />
    <path d="M 80.430272212445033,7.2627461793679444 A 56,56 0 1,1 59,3" />
  </g>
  <g fill="none" stroke="#ADE2FF" stroke-width="2" stroke-linecap="butt">
    <line x1="80.430272212445033" y1="7.2627461793679444" x2="74.3073372946036" y2="22.044818699548529" />
    <line x1="87.2842712474619" y1="30.715728752538098" x2="75.970562748477136" y2="42.029437251522857" />
    <line x1="98.597979746446669" y1="98.597979746446654" x2="75.970562748477136" y2="75.970562748477136" />
    <line x1="30.7157287525381" y1="87.2842712474619" x2="42.029437251522864" y2="75.970562748477136" />
    <line x1="7.2627461793679515" y1="80.430272212445061" x2="22.044818699548543" y2="74.307337294603613" />
    <line x1="7.2627461793679515" y1="37.56972778755496" x2="22.044818699548536" y2="43.6926627053964" />
    <line x1="30.715728752538091" y1="30.715728752538105" x2="42.029437251522857" y2="42.029437251522864" />
  </g>
</svg>
