<?xml version="1.0" standalone="no"?>
<!DOCTYPE svg PUBLIC "-//W3C//DTD SVG 1.1//EN" "http://www.w3.org/Graphics/SVG/1.1/DTD/svg11.dtd">
<svg width="116" height="116" version="1.1" xmlns="http://www.w3.org/2000/svg">
  <title>Simple maze</title>
  <g fill="none" stroke="#ADE2FF" stroke-width="2" stroke-linecap="square">
    <path d="M 80.52822213,68.50508251 A 24,24 0 1,1 80.52822213,47.49491749" />
    <path d="M 30.715728752538094,30.715728752538105 A 40,40 0 0,1 74.3073372946036,22.044818699548529" />
    <path d="M 87.2842712474619,30.715728752538098 A 40,40 0 0,1 95.54703689,75.50847084" />
    <path d="M 74.3073372946036,95.955181300451471 A 40,40 0 0,1 30.715728752538105,87.2842712474619" />
    <path d="M 30.7157287525381,87.2842712474619 A 40,40 0 0,1 30.715728752538105,30.715728752538105" />
    <path d="M 80.430272212445033,7.2627461793679444 A 56,56 0 1,1 59,3" />
  </g>
  <g fill="none" stroke="#ADE2FF" stroke-width="2" stroke-linecap="butt">
    <line x1="80.430272212445033" y1="7.2627461793679444" x2="74.3073372946036" y2="22.044818699548529" />
    <line x1="80.52822213" y1="68.50508251" x2="95.54703689" y2="75.50847084" />
    <line x1="87.2842712474619" y1="30.715728752538098" x2="99.6" y2="19.1" />
  </g>
</svg>
